<?xml version="1.0" standalone="no"?>
<!DOCTYPE svg PUBLIC "-//W3C//DTD SVG 20010904//EN"
 "http://www.w3.org/TR/2001/REC-SVG-20010904/DTD/svg10.dtd">
<svg version="1.0" xmlns="http://www.w3.org/2000/svg"
 width="512.000000pt" height="512.000000pt" viewBox="0 0 512.000000 512.000000"
 preserveAspectRatio="xMidYMid meet">

<g transform="translate(0.000000,512.000000) scale(0.100000,-0.100000)"
fill="#000000" stroke="none">
<path d="M2377 5109 c-921 -107 -1573 -943 -1452 -1862 35 -268 117 -482 275
-717 32 -47 124 -170 205 -275 253 -324 336 -474 375 -673 l13 -62 767 0 767
0 13 62 c39 199 123 349 375 673 238 306 340 474 410 679 104 306 111 676 19
994 -119 413 -396 761 -777 980 -286 163 -661 240 -990 201z m275 -900 c87
-18 158 -58 223 -123 204 -205 167 -541 -75 -696 -78 -50 -90 -82 -90 -240 l0
-130 -150 0 -150 0 0 143 c0 149 11 211 50 292 29 59 98 135 160 175 85 54
110 131 70 210 -23 45 -80 80 -130 80 -50 0 -107 -35 -130 -80 -11 -21 -20
-46 -20 -55 0 -13 -22 -15 -150 -15 -171 0 -160 -7 -139 92 19 88 58 158 124
223 113 112 257 155 407 124z m58 -1639 l0 -150 -150 0 -150 0 0 150 0 150
150 0 150 0 0 -150z"/>
<path d="M351 4744 c-40 -69 -69 -129 -64 -133 4 -5 120 -72 257 -151 237
-136 250 -142 263 -124 40 54 134 236 127 244 -11 11 -497 290 -504 290 -4 0
-39 -57 -79 -126z"/>
<path d="M4440 4729 c-135 -78 -249 -145 -254 -149 -7 -8 88 -190 127 -244 13
-18 26 -12 263 124 137 79 253 146 257 151 9 7 -131 259 -143 259 -3 0 -116
-63 -250 -141z"/>
<path d="M0 3470 l0 -150 305 0 305 0 0 150 0 150 -305 0 -305 0 0 -150z"/>
<path d="M4510 3470 l0 -150 305 0 305 0 0 150 0 150 -305 0 -305 0 0 -150z"/>
<path d="M537 2476 c-137 -80 -251 -146 -254 -149 -5 -6 138 -257 147 -257 12
0 504 288 507 297 4 11 -131 246 -143 250 -5 1 -121 -62 -257 -141z"/>
<path d="M4255 2505 c-37 -64 -68 -122 -69 -131 -1 -10 85 -65 249 -160 137
-79 252 -144 256 -144 12 0 151 252 143 259 -13 12 -500 291 -507 291 -3 0
-36 -52 -72 -115z"/>
<path d="M1810 910 l0 -310 750 0 750 0 0 310 0 310 -750 0 -750 0 0 -310z"/>
<path d="M2110 150 l0 -150 450 0 450 0 0 150 0 150 -450 0 -450 0 0 -150z"/>
</g>
</svg>
