<?xml version="1.0" standalone="no"?>
<!DOCTYPE svg PUBLIC "-//W3C//DTD SVG 20010904//EN"
 "http://www.w3.org/TR/2001/REC-SVG-20010904/DTD/svg10.dtd">
<svg version="1.0" xmlns="http://www.w3.org/2000/svg"
 width="50.000000pt" height="50.000000pt" viewBox="0 0 50.000000 50.000000"
 preserveAspectRatio="xMidYMid meet">

<g transform="translate(0.000000,50.000000) scale(0.100000,-0.100000)"
fill="#000000" stroke="none">
<path d="M176 425 l-27 -35 67 -75 c37 -41 70 -75 74 -75 4 0 37 34 74 75 l67
75 -27 35 -26 35 -88 0 -88 0 -26 -35z m82 4 c-2 -6 -8 -10 -13 -10 -5 0 -11
4 -13 10 -2 6 4 11 13 11 9 0 15 -5 13 -11z m90 0 c-2 -6 -8 -10 -13 -10 -5 0
-11 4 -13 10 -2 6 4 11 13 11 9 0 15 -5 13 -11z m-128 -20 c0 -5 -7 -9 -15 -9
-15 0 -20 12 -9 23 8 8 24 -1 24 -14z m88 3 c2 -7 -6 -12 -17 -12 -21 0 -27
11 -14 24 9 9 26 2 31 -12z m82 -3 c0 -5 -7 -9 -15 -9 -15 0 -20 12 -9 23 8 8
24 -1 24 -14z m-144 -65 c21 -50 12 -52 -26 -4 -30 38 -30 40 -10 40 15 0 25
-11 36 -36z m74 30 c0 -17 -24 -84 -30 -84 -6 0 -30 67 -30 84 0 3 14 6 30 6
17 0 30 -3 30 -6z m40 -34 c-38 -48 -47 -46 -26 4 11 25 21 36 36 36 20 0 20
-2 -10 -40z"/>
<path d="M372 204 c-29 -18 -56 -34 -60 -34 -4 0 -41 14 -81 31 -80 34 -107
34 -177 4 -50 -22 -26 -32 27 -11 21 9 48 16 59 16 33 0 170 -62 170 -76 0
-18 -6 -17 -66 1 -57 17 -64 18 -64 7 0 -5 27 -17 60 -27 63 -19 90 -12 90 24
0 19 105 85 120 76 19 -12 9 -24 -81 -91 l-91 -67 -85 27 c-89 29 -112 29
-153 -3 -34 -27 -18 -38 18 -12 38 26 43 26 132 -4 40 -14 79 -25 86 -25 19 0
188 128 198 150 10 23 -8 50 -33 49 -9 0 -40 -16 -69 -35z"/>
</g>
</svg>
