<?xml version="1.0" standalone="no"?>
<!DOCTYPE svg PUBLIC "-//W3C//DTD SVG 20010904//EN"
 "http://www.w3.org/TR/2001/REC-SVG-20010904/DTD/svg10.dtd">
<svg version="1.0" xmlns="http://www.w3.org/2000/svg"
 width="612.000000pt" height="406.000000pt" viewBox="0 0 612.000000 406.000000"
 preserveAspectRatio="xMidYMid meet">

<g transform="translate(0.000000,406.000000) scale(0.100000,-0.100000)"
fill="#000000" stroke="none">
<path d="M880 4003 c0 -91 6 -103 50 -103 31 0 39 -4 44 -22 8 -31 6 -299 -2
-321 -4 -9 -34 -30 -67 -46 -33 -16 -73 -40 -89 -53 l-28 -24 -47 24 c-174 89
-389 -136 -342 -358 24 -110 74 -158 215 -204 16 -6 14 -11 -21 -49 -84 -91
-145 -200 -169 -304 -35 -148 0 -384 73 -498 30 -46 168 -187 200 -204 12 -6
44 -11 71 -11 l49 0 7 -59 c11 -96 77 -179 156 -196 22 -5 30 -16 44 -61 18
-57 77 -134 102 -134 26 0 14 -28 -20 -48 -31 -18 -35 -26 -41 -79 -3 -32 -7
-65 -8 -73 -1 -8 -20 -23 -42 -33 -100 -46 -157 -145 -159 -272 -1 -85 16
-136 60 -185 54 -59 121 -83 234 -83 111 0 171 21 233 81 86 84 89 246 7 375
-23 37 -43 54 -84 73 -56 25 -66 40 -66 101 0 48 -16 79 -49 99 -17 10 -31 21
-31 25 0 3 18 9 40 13 149 24 230 295 141 471 l-28 54 28 27 c15 14 32 23 38
20 32 -20 127 37 143 86 3 8 14 5 37 -12 20 -14 53 -25 80 -27 64 -6 101 20
137 94 28 56 29 64 31 223 1 91 -2 241 -7 333 -8 155 -7 171 10 200 53 91 67
256 29 335 -26 53 -58 71 -100 55 -16 -6 -29 -10 -29 -8 0 1 7 19 15 38 25 61
36 169 25 250 -16 112 -37 164 -89 218 -44 46 -50 49 -98 49 -76 0 -136 -44
-185 -135 -20 -38 -43 -91 -49 -117 l-12 -46 -28 29 c-28 30 -51 35 -92 20
-17 -7 -40 -5 -73 5 -26 8 -64 14 -86 14 l-38 0 0 175 c0 166 1 175 19 175 37
0 51 27 51 96 l0 64 -95 0 -95 0 0 -57z m741 -266 c74 -50 111 -147 112 -292
1 -97 -20 -186 -51 -225 l-19 -23 -76 134 c-41 74 -102 173 -135 221 l-60 87
29 40 c32 42 98 81 140 81 14 0 41 -10 60 -23z m-164 -219 c60 -93 131 -215
172 -296 l22 -43 -69 -74 c-39 -40 -73 -82 -77 -94 -12 -37 -20 -23 -38 66
-20 97 -31 123 -51 123 -18 0 -25 58 -32 258 -3 87 -2 152 3 152 5 0 36 -42
70 -92z m-87 -45 l0 -96 -24 22 c-21 20 -23 27 -14 64 11 54 28 107 34 107 2
0 4 -44 4 -97z m-251 46 c35 -12 38 -21 16 -39 -8 -7 -20 -30 -27 -51 -6 -22
-15 -39 -19 -39 -4 0 -25 -24 -47 -54 -38 -53 -47 -57 -80 -31 -3 3 27 191 33
213 5 15 80 16 124 1z m-153 -61 c-11 -103 -18 -138 -27 -138 -15 0 -128 72
-133 85 -7 18 45 62 109 91 28 13 52 24 54 24 2 0 1 -28 -3 -62z m320 38 c8
-14 14 -35 12 -47 -3 -21 -5 -20 -48 16 -57 48 -60 55 -16 55 27 0 40 -6 52
-24z m-79 -19 l32 -23 -42 -11 c-23 -7 -50 -15 -59 -18 -26 -10 -22 9 8 44 14
17 27 31 28 31 1 0 16 -10 33 -23z m-482 -36 l40 -18 -61 1 c-70 1 -97 -15
-120 -71 -21 -49 -18 -154 7 -215 11 -29 29 -75 40 -102 10 -27 28 -59 39 -71
20 -21 20 -24 5 -39 -21 -20 -20 -20 -90 4 -81 28 -123 63 -153 128 -21 47
-24 64 -19 122 3 38 15 88 29 116 41 89 138 161 218 163 14 0 43 -8 65 -18z
m555 -36 c6 -8 9 -23 5 -35 -11 -35 -56 -80 -79 -80 -12 0 -31 -7 -42 -15 -10
-8 -29 -15 -42 -15 -22 0 -23 3 -20 58 3 57 3 57 48 80 50 25 112 29 130 7z
m-530 -3 c0 -4 -12 -24 -26 -43 -41 -55 -77 -129 -94 -199 l-17 -65 -17 54
c-18 62 -21 156 -5 198 16 44 47 63 107 63 28 0 52 -4 52 -8z m81 -72 c37 -72
57 -180 40 -216 -9 -22 -14 -24 -26 -14 -13 11 -24 4 -66 -39 -57 -56 -79 -59
-119 -15 -20 20 -22 31 -17 85 8 96 104 265 145 257 8 -2 27 -28 43 -58z m526
13 c20 -49 8 -54 -13 -7 -10 22 -20 43 -22 48 -3 5 1 5 8 1 6 -4 19 -23 27
-42z m-434 -35 c16 -12 17 -16 1 -63 -20 -61 -34 -78 -34 -44 0 14 -9 52 -20
84 -11 32 -20 60 -20 62 0 5 50 -22 73 -39z m163 -45 c-8 -8 -56 6 -56 16 0 5
12 24 28 42 l27 33 3 -43 c2 -24 1 -45 -2 -48z m248 60 c23 -47 28 -90 15
-150 l-12 -58 -13 30 c-12 28 -20 205 -9 205 2 0 11 -12 19 -27z m-44 -30 l0
-47 -21 21 c-20 20 -20 22 -4 47 10 14 19 26 21 26 2 0 4 -21 4 -47z m-307
-15 c15 -12 15 -17 2 -62 -17 -57 -20 -174 -4 -229 6 -21 26 -56 46 -78 31
-35 33 -39 15 -39 -12 0 -37 18 -57 39 -20 22 -50 45 -67 52 l-30 12 6 76 c6
70 53 241 66 241 4 0 14 -6 23 -12z m288 -62 c45 -99 -2 -255 -91 -301 -33
-17 -28 -31 -56 147 l-17 108 24 35 c26 39 72 65 103 57 10 -3 27 -23 37 -46z
m-188 26 c11 -5 5 -53 -17 -147 -8 -38 -16 -95 -16 -125 l-1 -55 -19 23 c-47
57 -54 193 -15 310 4 12 44 8 68 -6z m37 -12 c0 -5 -4 -10 -10 -10 -5 0 -10 5
-10 10 0 6 5 10 10 10 6 0 10 -4 10 -10z m676 -28 c46 -30 60 -160 29 -271
-26 -91 -39 -95 -59 -14 -10 38 -33 108 -53 157 l-36 90 29 23 c29 23 69 30
90 15z m-370 -35 c18 -47 49 -217 43 -238 -4 -13 -7 -53 -8 -89 -1 -54 4 -73
28 -115 16 -27 45 -65 64 -84 l35 -33 -39 -52 c-21 -28 -52 -87 -68 -130 l-28
-80 -5 80 c-6 91 -33 171 -85 245 l-36 52 6 131 c3 83 11 146 20 171 9 22 23
66 32 98 15 55 30 71 41 44z m-307 -157 c19 -121 16 -134 -30 -110 -21 12 -22
16 -15 99 6 87 15 135 23 127 2 -2 12 -54 22 -116z m499 58 c-14 -44 -20 -94
-21 -165 -1 -57 -5 -103 -10 -103 -9 0 -60 79 -78 121 -11 27 -10 36 7 67 16
30 110 142 119 142 2 0 -6 -28 -17 -62z m106 -78 c52 -161 52 -173 15 -204
-32 -28 -62 -32 -103 -16 -25 9 -26 13 -26 88 0 88 14 177 38 235 14 37 16 38
29 21 7 -10 29 -66 47 -124z m-413 59 c-12 -24 -19 -35 -15 -24 3 11 8 35 11
53 4 21 9 30 15 24 6 -6 2 -26 -11 -53z m-436 -25 c-6 -41 -8 -44 -36 -44
l-30 0 17 33 c46 89 62 93 49 11z m-71 11 c-31 -24 -39 -17 -13 11 13 14 25
20 27 14 2 -6 -4 -18 -14 -25z m512 -47 c-9 -24 -35 -63 -57 -88 l-40 -45 35
53 c19 29 43 70 52 92 23 52 32 42 10 -12z m-609 -12 c-9 -19 -11 -19 -33 8
-33 38 -30 46 10 27 29 -14 32 -19 23 -35z m83 14 c-6 -11 -15 -20 -20 -20 -4
0 -16 -3 -24 -6 -25 -10 -8 26 18 36 33 13 38 12 26 -10z m66 -45 c12 -30 -3
-43 -38 -36 -39 8 -44 32 -8 42 38 11 40 10 46 -6z m383 -30 c-17 -24 -42 -54
-55 -66 l-24 -22 0 26 c0 16 7 28 18 31 10 4 33 22 52 41 45 47 48 44 9 -10z
m-303 4 c46 -28 43 -38 -8 -28 -24 4 -46 8 -50 9 -10 0 3 40 14 40 6 0 26 -9
44 -21z m376 -81 l-3 -96 -53 36 -53 37 56 62 c30 34 55 61 56 60 0 -1 -1 -45
-3 -99z m-572 67 c0 -8 -6 -15 -14 -15 -17 0 -28 14 -19 24 12 12 33 6 33 -9z
m780 -46 c13 -28 36 -61 51 -74 21 -17 30 -38 39 -84 6 -34 8 -66 4 -72 -9
-16 -93 68 -115 116 -18 40 -27 165 -11 165 4 -1 18 -23 32 -51z m-677 24 c7
-4 1 -41 -8 -51 -7 -8 -75 44 -75 57 0 10 9 12 37 6 21 -4 41 -9 46 -12z
m-123 -24 c0 -10 -50 -32 -57 -25 -3 2 0 13 6 24 11 20 51 20 51 1z m241 6
c30 -6 39 -14 57 -51 12 -25 22 -50 22 -57 0 -8 -21 -24 -47 -37 l-46 -23 -19
24 c-10 13 -31 40 -46 59 -25 30 -27 40 -20 68 8 30 12 33 36 28 15 -3 43 -8
63 -11z m179 -9 c0 -9 -8 -12 -25 -8 -37 7 -41 22 -6 22 20 0 31 -5 31 -14z
m-500 -15 c0 -5 -16 -28 -35 -51 -43 -51 -56 -96 -52 -187 2 -66 0 -72 -30
-107 -42 -48 -45 -109 -8 -182 19 -38 25 -64 25 -119 0 -38 7 -97 15 -130 19
-80 19 -81 -9 -48 -89 107 -135 319 -106 491 15 94 72 208 140 285 52 58 60
64 60 48z m420 -20 c0 -16 3 -38 6 -48 3 -10 -1 -7 -9 7 -26 44 -30 70 -13 70
11 0 16 -9 16 -29z m73 0 c11 -10 -29 -44 -42 -36 -6 3 -11 17 -11 31 0 22 3
24 23 19 12 -4 25 -10 30 -14z m-335 -7 c30 -8 28 -30 -11 -116 -33 -72 -34
-73 -98 -100 -35 -14 -65 -25 -67 -23 -3 2 59 154 88 218 14 28 38 34 88 21z
m-108 -9 c0 -3 -18 -47 -39 -98 -22 -50 -43 -105 -47 -120 -4 -18 -10 -25 -16
-19 -18 18 42 215 71 232 18 11 31 13 31 5z m528 -22 c15 -9 44 -32 65 -52 29
-28 37 -43 37 -71 0 -29 13 -100 46 -252 6 -25 4 -28 -18 -28 -14 0 -47 -11
-73 -25 -26 -14 -48 -24 -49 -23 -14 33 -43 81 -51 84 -8 3 -10 185 -5 382 0
7 24 0 48 -15z m-60 -200 c-1 -72 -6 -134 -9 -138 -4 -3 -18 -3 -31 0 l-25 6
1 145 c1 143 1 146 26 164 l25 19 8 -32 c5 -18 7 -91 5 -164z m622 115 l0 -81
-25 23 c-20 19 -32 22 -70 18 -25 -3 -47 -3 -49 1 -2 3 -7 24 -10 46 l-7 40
48 -3 c38 -3 54 1 73 17 14 11 28 20 33 21 4 0 7 -37 7 -82z m-915 19 l14 -46
-45 -17 c-24 -9 -46 -15 -48 -13 -5 6 56 131 61 126 2 -3 11 -25 18 -50z m34
9 c24 -39 26 -46 8 -46 -7 0 -18 18 -24 40 -5 22 -9 40 -7 40 1 0 12 -15 23
-34z m-313 -32 c-8 -27 -15 -40 -15 -28 -1 24 19 87 26 81 2 -3 -2 -27 -11
-53z m470 -20 c8 -41 -1 -116 -20 -170 l-13 -38 -22 74 c-13 41 -30 88 -37
103 -15 27 -14 28 28 47 24 11 46 20 50 20 4 0 10 -16 14 -36z m354 -138 c19
-58 28 -166 13 -166 -23 1 -35 27 -58 133 -14 64 -25 129 -25 144 1 27 1 27
25 -12 14 -22 34 -67 45 -99z m-451 71 c10 -30 27 -79 36 -110 15 -52 15 -58
0 -88 -10 -18 -38 -53 -64 -78 -107 -107 -221 -78 -225 56 -1 36 0 37 44 46
83 17 129 71 144 166 4 24 9 48 12 53 13 21 34 3 53 -45z m-79 16 c0 -92 -88
-187 -151 -164 -15 5 -15 12 5 66 20 56 25 62 76 87 65 33 70 33 70 11z m881
-21 c16 -21 19 -35 14 -67 -12 -78 -14 -79 -44 -38 -16 21 -40 49 -55 62 -32
30 -34 59 -4 70 32 12 66 1 89 -27z m-127 -34 c7 -13 21 -44 31 -71 21 -56 60
-101 81 -93 9 4 18 -2 23 -17 16 -40 -42 -157 -103 -210 -26 -23 -108 -77
-116 -77 -3 0 -6 24 -6 53 -1 61 -18 120 -47 161 -19 28 -20 30 -2 85 21 68
34 93 74 149 36 48 45 51 65 20z m-968 -24 c-35 -34 -56 -38 -56 -10 0 12 58
42 84 45 5 1 -7 -15 -28 -35z m44 -26 c-19 -53 -31 -60 -58 -34 -11 10 -6 19
28 49 22 21 42 37 44 37 3 0 -4 -24 -14 -52z m360 -21 c0 -32 -23 -77 -34 -67
-5 5 25 100 31 100 2 0 3 -15 3 -33z m663 -36 c16 -27 16 -31 3 -31 -13 0 -56
66 -56 86 0 12 34 -24 53 -55z m-1189 -121 l-7 -35 -18 40 c-24 53 -24 83 4
125 l22 35 3 -65 c2 -36 0 -81 -4 -100z m52 87 c-12 -36 -23 -63 -24 -62 -4 4
18 116 25 128 2 4 8 5 12 3 4 -3 -2 -34 -13 -69z m1194 16 c-1 -28 -3 -34 -10
-22 -8 14 -3 59 6 59 2 0 4 -17 4 -37z m-1100 -56 c0 -88 47 -147 116 -147 40
0 108 36 142 74 l29 34 6 -86 c6 -80 5 -89 -21 -136 l-27 -51 -72 -3 c-46 -2
-84 2 -105 11 -53 23 -117 85 -145 140 -22 44 -25 60 -21 117 3 36 12 80 22
97 l16 32 30 -17 c27 -15 30 -22 30 -65z m447 18 c6 -16 -11 -87 -33 -140
l-13 -30 -16 38 c-14 33 -14 47 -4 93 11 47 15 54 36 54 13 0 26 -7 30 -15z
m-84 -15 c-3 -11 -7 -20 -9 -20 -2 0 -4 9 -4 20 0 11 4 20 9 20 5 0 7 -9 4
-20z m140 -43 l19 -37 -32 -47 c-17 -26 -33 -58 -36 -70 -8 -29 -18 -29 -31 0
-9 18 -6 38 13 93 13 38 24 77 24 87 0 29 23 15 43 -26z m-160 1 c7 -24 -13
-108 -25 -108 -4 0 -8 19 -8 43 0 75 20 115 33 65z m350 -2 c3 -7 8 -34 12
-59 6 -39 3 -53 -18 -90 -28 -47 -94 -111 -132 -129 -18 -8 -28 -8 -39 1 -12
10 -11 20 5 72 11 34 19 82 19 109 0 41 4 50 28 66 57 40 116 54 125 30z m41
-5 c4 -5 2 -20 -3 -33 -7 -16 -10 -18 -10 -6 -1 9 -4 23 -7 32 -6 17 11 23 20
7z m46 -187 c7 -22 16 -43 21 -48 16 -17 10 -25 -28 -35 -21 -6 -41 -11 -45
-11 -9 0 0 143 15 215 l12 60 6 -71 c4 -40 12 -89 19 -110z m318 77 c-9 -152
-77 -236 -171 -210 -19 5 -42 18 -51 28 -16 18 -15 20 36 48 63 36 130 106
160 168 12 25 24 45 26 45 3 0 3 -35 0 -79z m-285 31 c21 -52 31 -127 20 -147
-8 -14 -13 -10 -27 25 -20 52 -33 160 -19 160 6 0 18 -17 26 -38z m-936 6 c-3
-8 -6 -5 -6 6 -1 11 2 17 5 13 3 -3 4 -12 1 -19z m498 -87 c-16 -34 -16 -34
-31 -12 -13 18 -13 28 -3 59 18 56 21 57 36 21 13 -30 12 -38 -2 -68z m141 23
c-5 -25 -12 -34 -26 -34 -26 0 -25 14 2 58 24 39 34 30 24 -24z m-615 -22 c22
-69 57 -128 97 -164 39 -35 47 -39 107 -53 l30 -7 -30 -15 c-39 -21 -127 -20
-159 0 -34 23 -66 114 -73 210 -7 86 5 99 28 29z m519 -29 c0 -13 -38 -28 -47
-19 -3 3 2 17 12 32 13 21 19 24 26 13 5 -8 9 -19 9 -26z m281 -76 c-10 -25
-15 -27 -67 -27 l-56 0 49 44 c26 24 55 56 63 72 l15 27 3 -44 c2 -25 -2 -57
-7 -72z m-601 -37 c92 -37 94 -39 67 -49 -81 -31 -172 21 -227 130 -28 53 -26
54 23 3 32 -34 64 -54 137 -84z m231 72 c-6 -11 -20 -22 -31 -25 -24 -6 -24
-6 -3 38 14 30 19 33 31 21 10 -10 11 -19 3 -34z m139 -23 c0 -5 -4 -9 -10 -9
-5 0 -10 7 -10 16 0 8 5 12 10 9 6 -3 10 -10 10 -16z m-45 -50 c0 -23 -4 -24
-73 -27 -84 -3 -86 3 -14 49 41 26 48 27 66 15 12 -7 21 -24 21 -37z m-155 7
c0 -3 -4 -8 -10 -11 -5 -3 -10 -1 -10 4 0 6 5 11 10 11 6 0 10 -2 10 -4z m540
-15 c-17 -34 -61 -61 -97 -61 -34 0 -34 0 -19 27 10 20 27 31 58 39 65 18 70
17 58 -5z m-594 0 c-3 -5 -15 -7 -26 -4 -28 7 -25 13 6 13 14 0 23 -4 20 -9z
m416 -74 c10 -3 9 -9 -4 -22 -16 -17 -20 -17 -69 -2 -28 9 -57 17 -65 17 -12
0 -34 29 -34 44 0 3 15 12 33 19 30 13 35 12 79 -19 26 -18 53 -34 60 -37z
m48 56 c-1 -36 -43 -40 -85 -9 -19 14 -17 15 33 16 28 0 52 -3 52 -7z m-259
-42 c-6 -10 -16 -22 -23 -28 -15 -12 -221 -83 -226 -78 -6 6 30 70 55 97 24
25 31 27 114 27 83 0 89 -1 80 -18z m-256 -53 c-31 -57 -38 -63 -69 -66 -22
-2 -54 6 -83 19 l-48 23 66 6 c64 6 121 31 149 65 24 29 19 14 -15 -47z m290
31 c-10 -15 -25 -10 -19 6 4 8 10 12 15 9 5 -3 7 -10 4 -15z m52 -49 c15 -12
41 -20 63 -20 44 0 60 -19 84 -100 20 -68 20 -129 1 -205 -27 -104 -91 -175
-157 -175 -27 0 -28 2 -28 48 0 26 -4 74 -10 106 -9 56 -8 60 17 90 14 17 32
45 40 63 17 43 17 127 -2 163 -29 56 -94 48 -121 -15 -19 -47 -18 -91 6 -160
11 -32 20 -60 20 -62 0 -8 -72 -34 -78 -28 -13 12 -1 134 19 197 35 110 87
145 146 98z m-153 -58 c-23 -59 -50 -195 -40 -210 2 -4 1 -14 -3 -20 -6 -10
-15 -10 -37 -2 -67 26 -117 104 -112 176 l3 45 95 33 c52 19 100 34 106 35 7
1 2 -22 -12 -57z m140 16 c21 -30 20 -94 -3 -143 -19 -42 -46 -71 -54 -58 -19
33 -38 120 -34 150 11 67 61 94 91 51z m-49 -365 c6 -69 5 -83 -7 -83 -28 0
-77 70 -92 132 -5 24 -2 27 37 40 28 9 44 10 49 3 3 -5 9 -47 13 -92z m72
-186 c2 -3 7 -25 9 -49 12 -108 12 -108 62 -129 61 -26 88 -52 119 -114 48
-93 41 -231 -14 -304 -75 -98 -296 -120 -416 -40 -66 44 -92 101 -92 204 0 68
5 89 29 138 29 60 91 117 127 117 27 0 46 37 52 105 7 71 24 89 80 82 21 -3
41 -8 44 -10z"/>
<path d="M2242 3983 l3 -78 43 -1 c24 -1 45 -4 48 -7 3 -2 8 -59 11 -126 l6
-121 -69 6 c-59 5 -72 4 -92 -12 -31 -26 -44 -75 -27 -107 12 -23 10 -28 -22
-59 -19 -18 -50 -58 -70 -88 -20 -30 -52 -79 -71 -108 -30 -44 -37 -64 -40
-117 -4 -58 -1 -72 33 -142 47 -99 82 -143 145 -183 l50 -32 -67 -33 c-88 -42
-143 -100 -143 -153 0 -88 104 -203 246 -274 75 -37 94 -42 176 -47 l92 -6 13
-44 c7 -25 10 -61 6 -84 l-6 -39 -56 6 c-30 4 -98 18 -150 31 -113 30 -152 31
-207 6 -133 -60 -131 -229 4 -373 67 -71 130 -102 214 -103 59 0 71 4 112 32
l46 33 0 -71 c0 -38 7 -129 16 -202 15 -125 15 -132 -2 -142 -40 -23 -53 -45
-59 -102 -9 -80 -9 -80 -52 -98 -109 -46 -176 -188 -154 -326 12 -73 31 -109
78 -148 56 -46 123 -65 226 -64 77 0 95 4 151 32 72 35 108 79 127 154 36 144
-44 326 -156 355 -33 9 -42 31 -44 100 -1 36 -7 50 -33 74 -30 28 -32 34 -50
179 -21 174 -14 305 21 401 11 31 24 87 27 125 l6 69 57 16 c81 24 137 75 157
143 14 49 14 60 0 115 -9 33 -24 77 -35 99 -19 36 -19 41 -5 87 18 57 12 128
-16 191 -19 44 -18 53 12 53 33 0 75 28 87 59 15 34 4 63 -35 97 l-25 20 25
45 c53 98 58 214 12 294 -28 48 -81 78 -126 73 -26 -2 -33 3 -51 37 -29 55
-96 124 -142 145 l-39 18 129 4 c187 6 258 43 231 120 -21 61 -107 91 -193 69
-68 -17 -123 -56 -157 -111 -27 -44 -34 -49 -57 -43 -14 3 -27 6 -27 7 -1 1
-4 60 -8 132 l-6 132 30 6 30 6 0 75 0 75 -90 0 -91 0 3 -77z m518 -241 c18
-14 25 -28 25 -53 0 -53 -47 -71 -202 -77 -136 -5 -138 -4 -102 54 56 91 205
131 279 76z m-431 -117 c21 -12 -3 -36 -65 -66 -35 -16 -69 -27 -74 -24 -16
10 -12 58 6 84 15 21 22 23 70 18 30 -3 58 -8 63 -12z m81 -25 c11 -7 5 -10
-22 -10 -21 0 -38 5 -38 10 0 13 40 13 60 0z m-10 -72 c-5 -18 -21 -102 -35
-186 -25 -149 -57 -262 -75 -262 -5 0 -23 46 -40 103 -38 124 -59 150 -124
151 -25 1 -46 4 -46 7 0 3 13 24 28 45 40 54 108 114 131 114 11 0 32 11 48
24 30 25 51 33 95 35 25 1 26 -1 18 -31z m101 -7 c42 -26 109 -110 109 -136 0
-6 -17 -23 -37 -36 -68 -44 -111 -136 -98 -208 3 -20 22 -64 41 -99 19 -34 34
-64 34 -66 0 -2 -10 -6 -23 -10 -12 -3 -37 -20 -55 -37 l-33 -32 -37 30 c-20
16 -52 49 -69 72 l-33 42 19 37 c27 54 48 138 76 305 14 82 27 152 30 158 10
15 29 10 76 -20z m239 -171 c79 -42 95 -192 35 -315 -23 -48 -27 -51 -55 -47
l-30 4 0 122 c0 106 -7 166 -26 229 -4 14 1 17 26 17 17 0 40 -4 50 -10z
m-101 -42 c7 -24 15 -95 18 -159 7 -136 -1 -159 -50 -159 -29 0 -37 6 -67 57
-31 50 -35 66 -35 123 0 54 5 73 24 101 22 32 77 79 92 79 4 0 12 -19 18 -42z
m-457 -15 c8 -10 32 -71 53 -136 37 -116 37 -118 19 -139 -41 -45 -116 -60
-179 -34 -38 16 -55 58 -55 135 0 48 26 159 42 179 16 19 102 15 120 -5z
m-191 -118 c-6 -35 -9 -41 -10 -20 -1 30 9 78 15 73 2 -2 -1 -26 -5 -53z m327
-199 c18 -25 49 -55 70 -67 20 -12 38 -23 40 -24 1 -1 0 -10 -4 -19 -3 -9 -17
-16 -33 -16 -14 0 -55 -7 -91 -14 -63 -14 -66 -13 -107 10 -50 29 -100 70
-112 93 -8 14 -3 16 46 13 61 -4 101 9 134 44 12 13 23 24 24 24 1 0 16 -20
33 -44z m332 -34 c0 -28 -11 -34 -26 -14 -19 24 -17 32 6 32 13 0 20 -7 20
-18z m60 3 c-7 -8 -16 -15 -21 -15 -5 0 -9 7 -9 15 0 9 9 15 21 15 18 0 19 -2
9 -15z m-114 -20 c20 -30 17 -34 -29 -42 -42 -7 -90 3 -82 17 6 10 74 49 87
50 4 0 15 -11 24 -25z m187 -3 c30 -26 22 -61 -18 -78 -50 -21 -74 -18 -87 11
-10 23 -8 28 28 59 39 34 45 35 77 8z m-146 -72 c-2 -12 -17 -15 -72 -13 -143
5 -156 28 -16 28 77 0 91 -2 88 -15z m-237 -60 c0 -23 -8 -24 -62 -8 -46 13
-33 28 25 28 30 0 37 -4 37 -20z m188 4 c47 -7 45 2 26 -95 -3 -16 -9 -28 -12
-26 -4 2 -44 21 -89 42 -66 31 -83 44 -83 61 0 38 4 39 158 18z m123 -74 c20
-68 21 -152 1 -164 -4 -2 -22 16 -40 40 l-34 43 13 76 c15 96 31 98 60 5z
m-392 34 c69 -26 71 -27 71 -61 0 -50 26 -168 59 -266 l30 -86 -34 -7 c-123
-23 -358 112 -415 238 -26 57 -25 61 12 104 32 36 155 104 190 104 9 0 49 -12
87 -26z m183 -68 c29 -14 63 -33 76 -43 l22 -18 -26 -130 c-23 -116 -34 -144
-55 -145 -7 0 -63 156 -77 215 -6 22 -13 64 -16 93 -8 62 -2 64 76 28z m163
-136 l27 -39 -20 -33 c-24 -39 -70 -84 -77 -76 -5 4 19 141 30 176 6 18 10 16
40 -28z m94 -238 c2 -85 -64 -155 -165 -176 -30 -7 -31 -6 -36 32 -8 57 16
173 39 185 10 5 41 34 68 63 l50 53 22 -57 c12 -31 22 -76 22 -100z m-219 -2
c0 -5 -5 -10 -11 -10 -5 0 -7 5 -4 10 3 6 8 10 11 10 2 0 4 -4 4 -10z m-205
-186 c55 -13 115 -24 134 -24 l34 0 -7 -72 c-16 -179 -18 -188 -47 -228 -36
-50 -79 -72 -139 -72 -126 1 -265 137 -278 272 -9 100 64 166 168 152 19 -2
80 -15 135 -28z m237 -826 c4 -7 8 -26 8 -43 0 -16 3 -47 7 -68 5 -35 11 -41
58 -61 91 -41 145 -135 145 -256 0 -162 -92 -245 -275 -245 -113 0 -168 20
-223 79 -67 73 -78 201 -27 310 23 47 80 104 113 112 40 10 62 33 62 68 0 65
13 108 34 117 27 11 87 3 98 -13z"/>
<path d="M3544 3998 c2 -35 5 -71 5 -80 1 -14 10 -18 40 -18 39 0 39 0 43 -44
6 -78 -6 -107 -59 -151 -171 -141 -236 -270 -232 -457 1 -87 -1 -97 -34 -168
-68 -145 -95 -315 -77 -483 32 -292 168 -476 370 -502 30 -4 58 -13 62 -19 4
-6 8 -31 8 -56 0 -53 22 -246 56 -495 l24 -180 -20 -17 c-11 -9 -26 -18 -32
-20 -7 -3 -17 -40 -23 -83 -10 -76 -12 -79 -43 -89 -136 -46 -206 -250 -139
-407 59 -138 315 -184 469 -84 57 38 90 103 96 189 9 137 -42 242 -141 291
-54 26 -55 27 -62 78 -11 95 -15 105 -44 117 -27 11 -29 17 -40 98 -35 273
-61 518 -63 595 l-3 88 53 18 c71 24 149 80 221 157 114 121 175 270 175 429
1 283 -187 455 -346 316 -89 -79 -129 -213 -148 -501 -6 -91 -8 -219 -4 -284
l7 -119 -57 7 c-158 18 -271 139 -327 351 -29 107 -32 328 -5 425 20 75 50
159 71 200 l14 28 41 -39 c75 -71 167 -75 404 -15 284 72 395 139 426 255 27
104 -65 229 -199 268 -190 55 -435 -71 -606 -312 l-50 -70 -3 50 c-5 62 13
143 46 215 18 40 53 82 124 152 109 105 122 130 111 218 l-5 47 41 7 41 6 0
75 0 75 -95 0 -96 0 5 -62z m501 -434 c99 -34 177 -143 161 -226 -8 -44 -56
-101 -112 -134 -108 -63 -404 -144 -528 -144 -74 0 -121 16 -152 51 -36 41
-35 54 5 116 108 166 258 292 406 339 57 18 163 17 220 -2z m-44 -557 c19 -12
48 -46 65 -74 84 -141 69 -364 -37 -539 -67 -111 -203 -227 -298 -254 -25 -7
-30 -5 -35 13 -9 36 -7 303 5 432 20 230 55 342 129 409 34 31 47 36 89 36 33
0 58 -7 82 -23z m-179 -1721 c4 -6 8 -24 8 -41 0 -16 3 -47 7 -68 5 -35 11
-41 58 -61 60 -27 108 -80 130 -145 21 -62 19 -176 -4 -227 -38 -83 -135 -134
-256 -134 -95 0 -162 24 -216 79 -40 40 -48 54 -58 111 -26 142 42 285 152
320 20 6 37 12 38 13 0 1 6 38 12 82 11 71 15 80 37 86 31 9 82 0 92 -15z"/>
<path d="M4820 4003 c0 -95 5 -103 58 -103 l45 0 -8 -367 c-4 -203 -10 -778
-14 -1279 l-6 -911 -28 -24 c-20 -18 -28 -36 -33 -74 -9 -86 -12 -92 -46 -104
-56 -20 -96 -59 -130 -128 -28 -57 -33 -77 -33 -142 0 -98 23 -159 77 -206 62
-52 121 -68 241 -63 117 5 161 22 219 86 114 126 51 396 -105 453 -33 12 -36
16 -42 63 -12 99 -15 106 -52 124 l-36 17 9 965 c5 531 8 1105 6 1275 l-3 311
33 9 33 10 3 73 3 72 -96 0 -95 0 0 -57z m130 -2745 c0 -29 7 -116 15 -193 17
-156 19 -263 6 -283 -12 -19 -21 19 -21 86 0 33 -4 51 -10 47 -5 -3 -10 -31
-10 -61 0 -54 -12 -94 -29 -94 -16 0 -20 28 -11 91 6 40 5 69 -1 81 -19 36
-31 6 -29 -71 3 -95 2 -104 -10 -96 -5 3 -10 43 -10 88 1 92 34 429 44 446 4
6 20 11 37 11 28 0 29 -1 29 -52z m34 20 c3 -13 6 -44 6 -70 0 -52 24 -88 58
-88 29 0 97 -65 123 -117 19 -39 23 -64 23 -138 0 -102 -11 -133 -67 -182 -59
-51 -112 -66 -224 -61 -105 4 -156 22 -200 70 -64 68 -77 209 -29 311 27 57
90 117 123 117 7 0 23 10 35 22 l21 21 -7 -44 c-3 -24 -9 -116 -13 -204 -5
-141 -4 -162 10 -174 14 -11 18 -11 23 2 5 13 9 14 25 4 16 -10 21 -8 35 11
15 21 17 22 28 6 7 -9 18 -14 24 -10 17 10 15 184 -3 336 -8 69 -15 144 -15
168 0 45 14 57 24 20z m-127 -70 c-3 -7 -5 -2 -5 12 0 14 2 19 5 13 2 -7 2
-19 0 -25z m20 -340 c-2 -13 -4 -5 -4 17 -1 22 1 32 4 23 2 -10 2 -28 0 -40z"/>
<path d="M4490 1554 c0 -29 71 -134 91 -134 20 0 7 35 -33 91 -44 60 -58 71
-58 43z"/>
<path d="M5278 1500 c-51 -34 -84 -67 -75 -76 8 -9 105 63 118 87 13 25 10 24
-43 -11z"/>
<path d="M4250 1312 c0 -5 21 -19 48 -30 76 -32 92 -35 92 -19 0 9 -23 21 -57
32 -32 10 -64 20 -70 23 -7 2 -13 0 -13 -6z"/>
<path d="M5495 1233 c-66 -27 -71 -30 -63 -38 7 -7 115 33 143 51 19 14 19 14
0 13 -11 0 -47 -12 -80 -26z"/>
<path d="M4180 1065 c0 -12 15 -15 81 -15 60 0 80 3 77 13 -3 8 -31 13 -81 15
-64 2 -77 0 -77 -13z"/>
<path d="M5510 931 c0 -10 133 -21 162 -13 15 4 17 7 6 13 -17 11 -168 11
-168 0z"/>
<path d="M4228 774 c-49 -25 -62 -44 -30 -44 25 1 95 34 111 53 12 15 11 17
-10 17 -13 -1 -45 -12 -71 -26z"/>
<path d="M5536 590 c65 -63 95 -83 94 -62 -1 22 -124 132 -147 132 -12 0 5
-23 53 -70z"/>
<path d="M4388 506 c-57 -52 -67 -66 -49 -66 13 0 121 100 121 111 0 17 -15 8
-72 -45z"/>
<path d="M5310 493 c0 -9 10 -25 78 -121 63 -90 65 -68 2 27 -51 78 -80 113
-80 94z"/>
<path d="M4610 318 c-26 -45 -37 -75 -31 -81 5 -5 14 -6 19 -3 17 10 83 137
77 147 -12 19 -24 7 -65 -63z"/>
<path d="M5080 331 c0 -21 53 -151 61 -151 14 0 10 31 -15 94 -20 53 -46 85
-46 57z"/>
<path d="M4844 317 c-9 -24 0 -172 11 -170 11 3 27 139 19 166 -6 20 -23 22
-30 4z"/>
</g>
</svg>
