<?xml version="1.0" standalone="no"?>
<!DOCTYPE svg PUBLIC "-//W3C//DTD SVG 20010904//EN"
 "http://www.w3.org/TR/2001/REC-SVG-20010904/DTD/svg10.dtd">
<svg version="1.0" xmlns="http://www.w3.org/2000/svg"
 width="342.000000pt" height="147.000000pt" viewBox="0 0 342.000000 147.000000"
 preserveAspectRatio="xMidYMid meet">

<g transform="translate(0.000000,147.000000) scale(0.100000,-0.100000)"
fill="#000000" stroke="none">
<path d="M545 1068 c-154 -72 -281 -132 -282 -132 -1 -1 15 -74 68 -313 l21
-93 55 0 55 0 -6 118 c-4 64 -9 129 -12 145 -4 20 -2 27 9 27 11 0 24 -36 46
-131 17 -72 31 -137 31 -145 0 -10 15 -14 60 -14 l60 0 0 180 c0 105 4 180 9
180 13 0 16 -12 47 -197 l28 -163 63 0 c62 0 63 0 63 28 1 63 29 394 34 400 3
3 9 3 12 -1 6 -5 33 -324 34 -394 l0 -33 85 0 c61 0 85 4 85 13 0 6 14 138 29
292 16 154 26 283 23 286 -8 8 -300 79 -322 79 -8 0 -141 -59 -295 -132z"/>
<path d="M1390 1133 c0 -21 -3 -48 -6 -60 -6 -22 -3 -23 45 -23 28 0 51 -2 51
-4 0 -5 -38 -375 -44 -428 l-4 -38 74 0 73 0 3 72 3 72 55 33 c64 38 58 44 86
-90 l18 -87 83 0 83 0 -19 48 c-11 26 -35 85 -55 131 -20 47 -35 86 -33 87 1
1 16 9 32 17 59 32 58 23 25 166 -16 73 -30 135 -30 137 0 2 -99 4 -220 4
l-220 0 0 -37z m333 -80 c3 -5 8 -33 11 -64 l7 -56 -63 -28 c-35 -15 -69 -29
-75 -32 -10 -4 -13 17 -13 85 0 63 4 92 13 95 19 8 115 8 120 0z"/>
<path d="M2000 1033 c0 -76 -3 -209 -7 -295 l-6 -158 76 0 77 0 0 93 c0 50 -3
183 -7 295 l-6 202 -64 0 -63 0 0 -137z"/>
<path d="M2256 1068 c-3 -57 -8 -190 -10 -295 l-6 -193 226 0 225 0 -6 93 c-6
91 -25 460 -25 485 0 9 -47 12 -199 12 l-199 0 -6 -102z m232 -18 l52 0 0
-175 0 -175 -74 0 -75 0 -3 173 c-2 94 -1 176 1 180 2 5 13 6 25 3 11 -3 45
-6 74 -6z"/>
<path d="M2740 1115 l0 -55 59 0 c33 0 62 -4 65 -8 2 -4 8 -112 12 -240 l7
-232 73 0 74 0 0 28 c0 15 -9 115 -20 222 -11 107 -20 200 -20 207 0 10 21 13
79 13 l79 0 -5 48 c-3 26 -6 53 -8 60 -3 9 -52 12 -200 12 l-195 0 0 -55z"/>
<path d="M700 464 c1 -20 37 -97 49 -103 24 -12 330 -86 334 -80 3 2 8 40 11
85 l7 81 -200 9 c-111 5 -201 9 -201 8z"/>
<path d="M1415 393 c-3 -38 -8 -79 -11 -93 l-4 -25 120 0 120 0 0 58 0 58 -52
-3 c-41 -2 -54 -7 -56 -20 -3 -14 3 -18 27 -18 21 0 31 -5 31 -15 0 -22 -23
-28 -75 -21 l-45 7 0 50 c0 49 0 49 34 49 66 0 126 12 126 26 0 11 -23 14
-104 14 l-104 0 -7 -67z"/>
<path d="M1775 403 c-9 -32 -21 -71 -26 -87 -13 -42 -13 -42 26 -38 26 3 35 9
35 23 0 16 8 19 54 19 47 0 54 -3 59 -22 5 -18 13 -23 37 -23 34 0 34 -2 1
118 l-18 62 -76 3 -76 3 -16 -58z m125 1 c16 -40 13 -44 -35 -44 -44 0 -45 1
-39 28 10 39 12 42 40 42 17 0 27 -8 34 -26z"/>
<path d="M2100 433 c0 -16 -3 -57 -6 -93 l-6 -65 31 0 31 0 0 58 c0 31 4 57 8
57 4 0 23 -16 42 -35 l33 -35 44 36 c43 35 43 35 43 11 0 -61 11 -85 42 -89
l31 -5 -7 60 c-3 33 -6 75 -6 93 0 32 -2 34 -32 34 -26 0 -41 -8 -70 -42 l-38
-43 -40 43 c-30 31 -49 42 -70 42 -26 0 -30 -4 -30 -27z"/>
<path d="M2510 368 l0 -93 105 0 c92 0 105 2 105 17 0 14 -12 18 -72 20 -60 2
-73 6 -76 21 -3 14 5 17 52 17 49 0 56 2 56 20 0 18 -7 20 -56 20 -47 0 -55 3
-52 18 3 14 16 18 76 20 55 2 72 6 72 17 0 12 -20 15 -105 15 l-105 0 0 -92z"/>
<path d="M2847 418 c-3 -24 -4 -44 -2 -46 2 -2 36 -10 76 -18 78 -15 84 -17
74 -33 -3 -6 -40 -11 -86 -11 -69 0 -79 -2 -79 -17 0 -16 11 -18 115 -15 l115
3 0 44 0 43 -72 13 c-117 20 -120 35 -10 45 51 5 72 11 72 20 0 11 -22 14 -99
14 l-98 0 -6 -42z"/>
</g>
</svg>
