<?xml version="1.0" standalone="no"?>
<!DOCTYPE svg PUBLIC "-//W3C//DTD SVG 20010904//EN"
 "http://www.w3.org/TR/2001/REC-SVG-20010904/DTD/svg10.dtd">
<svg version="1.0" xmlns="http://www.w3.org/2000/svg"
 width="80.000000pt" height="80.000000pt" viewBox="0 0 80.000000 80.000000"
 preserveAspectRatio="xMidYMid meet">

<g transform="translate(0.000000,80.000000) scale(0.100000,-0.100000)"
fill="#000000" stroke="none">
<path d="M331 718 c-76 -32 -92 -62 -93 -175 -1 -80 1 -93 30 -150 18 -34 36
-65 42 -68 5 -3 10 -15 10 -25 0 -13 -20 -28 -71 -51 -83 -38 -109 -67 -109
-120 l0 -39 260 0 260 0 0 39 c0 53 -26 82 -109 120 -51 23 -71 38 -71 51 0
10 4 21 10 25 5 3 24 36 42 73 29 59 33 75 31 143 -2 104 -21 145 -77 169 -69
31 -96 32 -155 8z m91 -7 c13 -5 36 -12 51 -16 31 -6 67 -56 67 -92 0 -23 -23
-32 -34 -14 -3 5 -51 9 -106 9 -55 0 -103 -4 -106 -9 -3 -5 -12 -9 -21 -9 -12
0 -14 8 -10 38 7 42 46 82 80 82 12 0 29 5 37 10 18 12 15 12 42 1z m89 -148
c5 -5 3 -17 -5 -28 -12 -16 -27 -19 -106 -20 -50 0 -95 4 -100 10 -19 23 -14
39 15 46 38 10 184 4 196 -8z m-241 -49 c0 -13 -4 -24 -10 -24 -5 0 -10 14
-10 31 0 17 4 28 10 24 6 -3 10 -17 10 -31z m280 6 c0 -16 -4 -30 -10 -30 -11
0 -14 43 -3 53 11 12 13 8 13 -23z m-40 -42 c0 -11 5 -15 15 -12 10 4 15 0 15
-10 0 -9 -6 -19 -14 -22 -8 -3 -17 -20 -20 -38 -12 -64 -84 -106 -140 -82 -39
16 -76 60 -76 91 0 13 -7 25 -15 29 -8 3 -15 13 -15 22 0 10 5 14 15 10 10 -3
15 1 15 12 0 15 13 17 110 17 97 0 110 -2 110 -17z m-110 -192 c14 0 33 4 43
8 14 7 17 3 17 -20 0 -56 -61 -84 -102 -47 -10 9 -18 29 -18 46 0 24 3 28 18
21 9 -4 28 -8 42 -8z m-62 -66 c41 -41 83 -40 124 1 l31 31 44 -17 c64 -25
103 -61 103 -96 l0 -29 -240 0 -240 0 0 28 c0 17 9 37 23 50 20 19 102 61 119
62 3 0 20 -13 36 -30z"/>
<path d="M330 455 c0 -8 7 -15 15 -15 8 0 15 7 15 15 0 8 -7 15 -15 15 -8 0
-15 -7 -15 -15z"/>
<path d="M440 455 c0 -8 7 -15 15 -15 8 0 15 7 15 15 0 8 -7 15 -15 15 -8 0
-15 -7 -15 -15z"/>
<path d="M190 140 c0 -5 5 -10 10 -10 6 0 10 5 10 10 0 6 -4 10 -10 10 -5 0
-10 -4 -10 -10z"/>
<path d="M230 140 c0 -5 5 -10 10 -10 6 0 10 5 10 10 0 6 -4 10 -10 10 -5 0
-10 -4 -10 -10z"/>
<path d="M270 140 c0 -5 5 -10 10 -10 6 0 10 5 10 10 0 6 -4 10 -10 10 -5 0
-10 -4 -10 -10z"/>
<path d="M310 140 c0 -5 5 -10 10 -10 6 0 10 5 10 10 0 6 -4 10 -10 10 -5 0
-10 -4 -10 -10z"/>
<path d="M350 140 c0 -5 5 -10 10 -10 6 0 10 5 10 10 0 6 -4 10 -10 10 -5 0
-10 -4 -10 -10z"/>
<path d="M390 140 c0 -5 5 -10 10 -10 6 0 10 5 10 10 0 6 -4 10 -10 10 -5 0
-10 -4 -10 -10z"/>
<path d="M430 140 c0 -5 5 -10 10 -10 6 0 10 5 10 10 0 6 -4 10 -10 10 -5 0
-10 -4 -10 -10z"/>
<path d="M470 140 c0 -5 5 -10 10 -10 6 0 10 5 10 10 0 6 -4 10 -10 10 -5 0
-10 -4 -10 -10z"/>
<path d="M510 140 c0 -5 5 -10 10 -10 6 0 10 5 10 10 0 6 -4 10 -10 10 -5 0
-10 -4 -10 -10z"/>
<path d="M550 140 c0 -5 5 -10 10 -10 6 0 10 5 10 10 0 6 -4 10 -10 10 -5 0
-10 -4 -10 -10z"/>
<path d="M590 140 c0 -5 5 -10 10 -10 6 0 10 5 10 10 0 6 -4 10 -10 10 -5 0
-10 -4 -10 -10z"/>
</g>
</svg>
