<?xml version="1.0" standalone="no"?>
<!DOCTYPE svg PUBLIC "-//W3C//DTD SVG 20010904//EN"
 "http://www.w3.org/TR/2001/REC-SVG-20010904/DTD/svg10.dtd">
<svg version="1.0" xmlns="http://www.w3.org/2000/svg"
 width="50.000000pt" height="50.000000pt" viewBox="0 0 50.000000 50.000000"
 preserveAspectRatio="xMidYMid meet">

<g transform="translate(0.000000,50.000000) scale(0.100000,-0.100000)"
fill="#000000" stroke="none">
<path d="M70 330 l0 -140 -25 0 c-21 0 -25 -5 -25 -30 0 -23 5 -30 19 -30 17
0 20 -8 23 -47 3 -40 6 -48 23 -48 17 0 20 8 23 48 l3 47 139 0 139 0 3 -47
c3 -40 6 -48 23 -48 17 0 20 8 23 48 3 39 6 47 23 47 14 0 19 7 19 30 0 23 -4
30 -20 30 -20 0 -24 9 -55 144 -19 85 -20 86 -51 77 -14 -3 -43 -5 -65 -3 -36
4 -39 7 -39 33 l0 29 -90 0 -90 0 0 -140z m80 -10 l0 -130 -30 0 -30 0 0 130
0 130 30 0 30 0 0 -130z m80 0 l0 -130 -30 0 -30 0 0 130 0 130 30 0 30 0 0
-130z m70 -30 l0 -100 -25 0 -25 0 0 100 0 100 25 0 25 0 0 -100z m70 90 c0
-5 -7 -10 -15 -10 -8 0 -15 5 -15 10 0 6 7 10 15 10 8 0 15 -4 15 -10z m-22
-107 l19 -83 -23 0 c-24 0 -24 2 -23 93 1 104 1 103 27 -10z m45 25 c10 -37
11 -60 5 -64 -14 -9 -18 -2 -33 57 -11 41 -12 55 -2 61 15 9 13 12 30 -54z
m16 -99 c-7 -4 -17 -5 -22 -2 -5 3 -3 9 4 14 7 4 17 5 22 2 5 -3 3 -9 -4 -14z
m51 -39 c0 -6 -77 -10 -210 -10 -133 0 -210 4 -210 10 0 6 77 10 210 10 133 0
210 -4 210 -10z m-373 -92 c-2 -13 -4 -3 -4 22 0 25 2 35 4 23 2 -13 2 -33 0
-45z m330 0 c-2 -13 -4 -3 -4 22 0 25 2 35 4 23 2 -13 2 -33 0 -45z"/>
<path d="M100 420 c0 -5 9 -10 20 -10 11 0 20 5 20 10 0 6 -9 10 -20 10 -11 0
-20 -4 -20 -10z"/>
<path d="M100 220 c0 -5 9 -10 20 -10 11 0 20 5 20 10 0 6 -9 10 -20 10 -11 0
-20 -4 -20 -10z"/>
<path d="M180 420 c0 -5 9 -10 20 -10 11 0 20 5 20 10 0 6 -9 10 -20 10 -11 0
-20 -4 -20 -10z"/>
<path d="M180 220 c0 -5 9 -10 20 -10 11 0 20 5 20 10 0 6 -9 10 -20 10 -11 0
-20 -4 -20 -10z"/>
<path d="M260 360 c0 -5 7 -10 15 -10 8 0 15 5 15 10 0 6 -7 10 -15 10 -8 0
-15 -4 -15 -10z"/>
<path d="M260 220 c0 -5 7 -10 15 -10 8 0 15 5 15 10 0 6 -7 10 -15 10 -8 0
-15 -4 -15 -10z"/>
</g>
</svg>
