<?xml version="1.0" standalone="no"?>
<!DOCTYPE svg PUBLIC "-//W3C//DTD SVG 20010904//EN"
 "http://www.w3.org/TR/2001/REC-SVG-20010904/DTD/svg10.dtd">
<svg version="1.0" xmlns="http://www.w3.org/2000/svg"
 width="50.000000pt" height="50.000000pt" viewBox="0 0 50.000000 50.000000"
 preserveAspectRatio="xMidYMid meet">

<g transform="translate(0.000000,50.000000) scale(0.100000,-0.100000)"
fill="#000000" stroke="none">
<path d="M106 464 c-31 -30 -9 -84 34 -84 24 0 50 26 50 50 0 24 -26 50 -50
50 -10 0 -26 -7 -34 -16z m59 -34 c0 -18 -6 -26 -23 -28 -13 -2 -25 3 -28 12
-10 26 4 48 28 44 17 -2 23 -10 23 -28z"/>
<path d="M57 352 c-13 -14 -17 -38 -17 -101 0 -74 2 -83 20 -88 17 -5 20 -14
20 -63 0 -65 9 -77 60 -77 58 0 60 6 60 153 l0 133 68 3 c64 3 67 4 67 28 l0
25 -131 3 c-116 2 -132 1 -147 -16z m263 -12 c0 -6 -30 -10 -70 -10 l-70 0 0
-145 c0 -122 -2 -145 -15 -145 -12 0 -15 14 -15 65 0 37 -4 65 -10 65 -6 0
-10 -28 -10 -65 0 -51 -3 -65 -15 -65 -13 0 -15 21 -15 130 0 80 -4 130 -10
130 -6 0 -10 -27 -10 -60 0 -33 -4 -60 -10 -60 -15 0 -13 143 2 158 15 15 248
17 248 2z"/>
<path d="M360 320 c0 -5 23 -10 50 -10 28 0 50 5 50 10 0 6 -22 10 -50 10 -27
0 -50 -4 -50 -10z"/>
<path d="M230 250 c0 -6 45 -10 115 -10 70 0 115 4 115 10 0 6 -45 10 -115 10
-70 0 -115 -4 -115 -10z"/>
<path d="M230 180 c0 -6 45 -10 115 -10 70 0 115 4 115 10 0 6 -45 10 -115 10
-70 0 -115 -4 -115 -10z"/>
<path d="M230 110 c0 -6 45 -10 115 -10 70 0 115 4 115 10 0 6 -45 10 -115 10
-70 0 -115 -4 -115 -10z"/>
<path d="M230 40 c0 -6 45 -10 115 -10 70 0 115 4 115 10 0 6 -45 10 -115 10
-70 0 -115 -4 -115 -10z"/>
</g>
</svg>
