<?xml version="1.0" standalone="no"?>
<!DOCTYPE svg PUBLIC "-//W3C//DTD SVG 20010904//EN"
 "http://www.w3.org/TR/2001/REC-SVG-20010904/DTD/svg10.dtd">
<svg version="1.0" xmlns="http://www.w3.org/2000/svg"
 width="64.000000pt" height="64.000000pt" viewBox="0 0 64.000000 64.000000"
 preserveAspectRatio="xMidYMid meet">

<g transform="translate(0.000000,64.000000) scale(0.100000,-0.100000)"
fill="#000000" stroke="none">
<path d="M74 557 c-2 -7 -3 -60 -2 -118 l3 -104 115 0 115 0 0 115 0 115 -113
3 c-87 2 -114 0 -118 -11z m206 -107 l0 -90 -90 0 -90 0 0 90 0 90 90 0 90 0
0 -90z"/>
<path d="M74 297 c-2 -7 -3 -60 -2 -118 l3 -104 115 0 115 0 0 115 0 115 -113
3 c-87 2 -114 0 -118 -11z m149 -17 l57 0 0 -90 0 -90 -90 0 -90 0 0 89 c0 93
5 104 45 96 11 -3 46 -5 78 -5z"/>
<path d="M334 297 c-2 -7 -3 -60 -2 -118 l3 -104 115 0 115 0 0 115 0 115
-113 3 c-87 2 -114 0 -118 -11z m142 -17 l64 0 0 -90 0 -90 -90 0 -90 0 0 89
c0 90 6 105 38 95 8 -2 43 -4 78 -4z"/>
</g>
</svg>
