<?xml version="1.0" standalone="no"?>
<!DOCTYPE svg PUBLIC "-//W3C//DTD SVG 20010904//EN"
 "http://www.w3.org/TR/2001/REC-SVG-20010904/DTD/svg10.dtd">
<svg version="1.0" xmlns="http://www.w3.org/2000/svg"
 width="50.000000pt" height="50.000000pt" viewBox="0 0 50.000000 50.000000"
 preserveAspectRatio="xMidYMid meet">

<g transform="translate(0.000000,50.000000) scale(0.100000,-0.100000)"
fill="#000000" stroke="none">
<path d="M40 250 l0 -180 210 0 210 0 0 180 0 180 -210 0 -210 0 0 -180z m400
0 l0 -160 -190 0 -190 0 0 160 0 160 190 0 190 0 0 -160z"/>
<path d="M184 365 c-14 -35 3 -46 68 -43 60 3 63 4 63 28 0 24 -3 25 -63 28
-49 2 -64 0 -68 -13z m116 -15 c0 -5 -22 -10 -50 -10 -27 0 -50 5 -50 10 0 6
23 10 50 10 28 0 50 -4 50 -10z"/>
<path d="M308 205 c-8 -9 3 -45 13 -45 5 0 9 7 9 15 0 8 0 18 1 22 1 10 -16
15 -23 8z"/>
<path d="M368 205 c-8 -9 3 -45 13 -45 5 0 9 7 9 15 0 8 0 18 1 22 1 10 -16
15 -23 8z"/>
<path d="M300 140 c0 -5 23 -10 50 -10 28 0 50 5 50 10 0 6 -22 10 -50 10 -27
0 -50 -4 -50 -10z"/>
</g>
</svg>
