<?xml version="1.0" standalone="no"?>
<!DOCTYPE svg PUBLIC "-//W3C//DTD SVG 20010904//EN"
 "http://www.w3.org/TR/2001/REC-SVG-20010904/DTD/svg10.dtd">
<svg version="1.0" xmlns="http://www.w3.org/2000/svg"
 width="48.000000pt" height="48.000000pt" viewBox="0 0 48.000000 48.000000"
 preserveAspectRatio="xMidYMid meet">

<g transform="translate(0.000000,48.000000) scale(0.100000,-0.100000)"
fill="#000000" stroke="none">
<path d="M143 398 l-93 -51 0 -103 c0 -117 -8 -106 122 -178 l68 -38 95 53 95
53 0 106 0 107 -93 51 c-51 29 -95 52 -98 52 -2 0 -46 -23 -96 -52z m177 -40
c44 -30 47 -43 16 -64 -24 -15 -28 -15 -60 0 -62 29 -119 -18 -96 -79 15 -40
54 -53 94 -31 27 14 37 15 59 5 33 -15 33 -20 5 -46 -70 -63 -150 -57 -212 17
-31 37 -35 103 -11 151 35 68 139 91 205 47z"/>
</g>
</svg>
